<svg width="84" height="87" viewBox="0 0 84 87" fill="none" xmlns="http://www.w3.org/2000/svg">
<g filter="url(#filter0_d_1_199)">
<circle cx="42" cy="39" r="39" fill="#197BA0"/>
</g>
<path d="M49.9 15H25.1C23.395 15 22 16.6963 22 18.7696V52.6957L28.2 45.1566H49.9C51.605 45.1566 53 43.4603 53 41.387V18.7696C53 16.6963 51.605 15 49.9 15Z" fill="white"/>
<path fill-rule="evenodd" clip-rule="evenodd" d="M32.1279 50.5473H54.2911C56.174 50.5473 57.7146 48.674 57.7146 46.3844V26.2031H59.013C60.656 26.2031 62.0003 27.8377 62.0003 29.8356V62.5276L56.0258 55.2627H35.1152C33.4722 55.2627 32.1279 53.6281 32.1279 51.6303V50.5473Z" fill="white"/>
<defs>
<filter id="filter0_d_1_199" x="0" y="0" width="84" height="87" filterUnits="userSpaceOnUse" color-interpolation-filters="sRGB">
<feFlood flood-opacity="0" result="BackgroundImageFix"/>
<feColorMatrix in="SourceAlpha" type="matrix" values="0 0 0 0 0 0 0 0 0 0 0 0 0 0 0 0 0 0 127 0" result="hardAlpha"/>
<feOffset dy="6"/>
<feGaussianBlur stdDeviation="1.5"/>
<feComposite in2="hardAlpha" operator="out"/>
<feColorMatrix type="matrix" values="0 0 0 0 0 0 0 0 0 0 0 0 0 0 0 0 0 0 0.22 0"/>
<feBlend mode="normal" in2="BackgroundImageFix" result="effect1_dropShadow_1_199"/>
<feBlend mode="normal" in="SourceGraphic" in2="effect1_dropShadow_1_199" result="shape"/>
</filter>
</defs>
</svg>
