<svg width="23" height="23" viewBox="0 0 23 23" fill="none" xmlns="http://www.w3.org/2000/svg">
<path d="M9.64516 0C12.2032 0 14.6565 1.01618 16.4653 2.825C18.2741 4.63382 19.2903 7.08711 19.2903 9.64516C19.2903 12.0342 18.4148 14.2303 16.9755 15.9219L17.3761 16.3226H18.5484L23 20.7742L20.7742 23L16.3226 18.5484V17.3761L15.9219 16.9755C14.2303 18.4148 12.0342 19.2903 9.64516 19.2903C7.08711 19.2903 4.63382 18.2741 2.825 16.4653C1.01618 14.6565 0 12.2032 0 9.64516C0 7.08711 1.01618 4.63382 2.825 2.825C4.63382 1.01618 7.08711 0 9.64516 0ZM9.64516 2.96774C5.93548 2.96774 2.96774 5.93548 2.96774 9.64516C2.96774 13.3548 5.93548 16.3226 9.64516 16.3226C13.3548 16.3226 16.3226 13.3548 16.3226 9.64516C16.3226 5.93548 13.3548 2.96774 9.64516 2.96774Z" fill="white"/>
</svg>
