<svg width="64" height="11" viewBox="0 0 64 11" fill="none" xmlns="http://www.w3.org/2000/svg">
<path d="M7.64541 0.874V2.655H5.22741V10H3.00441V2.655H0.586414V0.874H7.64541ZM8.31908 6.36C8.31908 5.61467 8.45774 4.96033 8.73508 4.397C9.02108 3.83367 9.40674 3.40033 9.89208 3.097C10.3774 2.79367 10.9191 2.642 11.5171 2.642C12.0284 2.642 12.4747 2.746 12.8561 2.954C13.2461 3.162 13.5451 3.435 13.7531 3.773V2.746H15.9761V10H13.7531V8.973C13.5364 9.311 13.2331 9.584 12.8431 9.792C12.4617 10 12.0154 10.104 11.5041 10.104C10.9147 10.104 10.3774 9.95233 9.89208 9.649C9.40674 9.337 9.02108 8.89933 8.73508 8.336C8.45774 7.764 8.31908 7.10533 8.31908 6.36ZM13.7531 6.373C13.7531 5.81833 13.5971 5.38067 13.2851 5.06C12.9817 4.73933 12.6091 4.579 12.1671 4.579C11.7251 4.579 11.3481 4.73933 11.0361 5.06C10.7327 5.372 10.5811 5.80533 10.5811 6.36C10.5811 6.91467 10.7327 7.35667 11.0361 7.686C11.3481 8.00667 11.7251 8.167 12.1671 8.167C12.6091 8.167 12.9817 8.00667 13.2851 7.686C13.5971 7.36533 13.7531 6.92767 13.7531 6.373ZM19.8073 0.38V10H17.5843V0.38H19.8073ZM25.8513 10L23.6413 6.958V10H21.4183V0.38H23.6413V5.697L25.8383 2.746H28.5813L25.5653 6.386L28.6073 10H25.8513ZM36.2523 8.115V10H35.1213C34.3153 10 33.687 9.805 33.2363 9.415C32.7857 9.01633 32.5603 8.37067 32.5603 7.478V4.592H31.6763V2.746H32.5603V0.978H34.7833V2.746H36.2393V4.592H34.7833V7.504C34.7833 7.72067 34.8353 7.87667 34.9393 7.972C35.0433 8.06733 35.2167 8.115 35.4593 8.115H36.2523ZM40.7926 10.104C40.0819 10.104 39.4406 9.95233 38.8686 9.649C38.3052 9.34567 37.8589 8.91233 37.5296 8.349C37.2089 7.78567 37.0486 7.127 37.0486 6.373C37.0486 5.62767 37.2132 4.97333 37.5426 4.41C37.8719 3.838 38.3226 3.40033 38.8946 3.097C39.4666 2.79367 40.1079 2.642 40.8186 2.642C41.5292 2.642 42.1706 2.79367 42.7426 3.097C43.3146 3.40033 43.7652 3.838 44.0946 4.41C44.4239 4.97333 44.5886 5.62767 44.5886 6.373C44.5886 7.11833 44.4196 7.777 44.0816 8.349C43.7522 8.91233 43.2972 9.34567 42.7166 9.649C42.1446 9.95233 41.5032 10.104 40.7926 10.104ZM40.7926 8.18C41.2172 8.18 41.5769 8.024 41.8716 7.712C42.1749 7.4 42.3266 6.95367 42.3266 6.373C42.3266 5.79233 42.1792 5.346 41.8846 5.034C41.5986 4.722 41.2432 4.566 40.8186 4.566C40.3852 4.566 40.0256 4.722 39.7396 5.034C39.4536 5.33733 39.3106 5.78367 39.3106 6.373C39.3106 6.95367 39.4492 7.4 39.7266 7.712C40.0126 8.024 40.3679 8.18 40.7926 8.18ZM55.6858 2.746V10H53.4628V9.012C53.2375 9.33267 52.9298 9.59267 52.5398 9.792C52.1585 9.98267 51.7338 10.078 51.2658 10.078C50.7111 10.078 50.2215 9.95667 49.7968 9.714C49.3721 9.46267 49.0428 9.103 48.8088 8.635C48.5748 8.167 48.4578 7.61667 48.4578 6.984V2.746H50.6678V6.685C50.6678 7.17033 50.7935 7.54733 51.0448 7.816C51.2961 8.08467 51.6341 8.219 52.0588 8.219C52.4921 8.219 52.8345 8.08467 53.0858 7.816C53.3371 7.54733 53.4628 7.17033 53.4628 6.685V2.746H55.6858ZM60.2336 10.104C59.6009 10.104 59.0376 9.99567 58.5436 9.779C58.0496 9.56233 57.6596 9.26767 57.3736 8.895C57.0876 8.51367 56.9272 8.089 56.8926 7.621H59.0896C59.1156 7.87233 59.2326 8.076 59.4406 8.232C59.6486 8.388 59.9042 8.466 60.2076 8.466C60.4849 8.466 60.6972 8.414 60.8446 8.31C61.0006 8.19733 61.0786 8.05433 61.0786 7.881C61.0786 7.673 60.9702 7.52133 60.7536 7.426C60.5369 7.322 60.1859 7.20933 59.7006 7.088C59.1806 6.96667 58.7472 6.841 58.4006 6.711C58.0539 6.57233 57.7549 6.36 57.5036 6.074C57.2522 5.77933 57.1266 5.385 57.1266 4.891C57.1266 4.475 57.2392 4.098 57.4646 3.76C57.6986 3.41333 58.0366 3.14033 58.4786 2.941C58.9292 2.74167 59.4622 2.642 60.0776 2.642C60.9876 2.642 61.7026 2.86733 62.2226 3.318C62.7512 3.76867 63.0546 4.36667 63.1326 5.112H61.0786C61.0439 4.86067 60.9312 4.66133 60.7406 4.514C60.5586 4.36667 60.3159 4.293 60.0126 4.293C59.7526 4.293 59.5532 4.345 59.4146 4.449C59.2759 4.54433 59.2066 4.67867 59.2066 4.852C59.2066 5.06 59.3149 5.216 59.5316 5.32C59.7569 5.424 60.1036 5.528 60.5716 5.632C61.1089 5.77067 61.5466 5.90933 61.8846 6.048C62.2226 6.178 62.5172 6.39467 62.7686 6.698C63.0286 6.99267 63.1629 7.39133 63.1716 7.894C63.1716 8.31867 63.0502 8.7 62.8076 9.038C62.5736 9.36733 62.2312 9.62733 61.7806 9.818C61.3386 10.0087 60.8229 10.104 60.2336 10.104Z" fill="#700877"/>
</svg>
