<svg width="30" height="30" viewBox="0 0 30 30" fill="none" xmlns="http://www.w3.org/2000/svg">
<path d="M9.62 13.79C11.06 16.62 13.38 18.94 16.21 20.38L18.41 18.18C18.69 17.9 19.08 17.82 19.43 17.93C20.55 18.3 21.75 18.5 23 18.5C23.2652 18.5 23.5196 18.6054 23.7071 18.7929C23.8946 18.9804 24 19.2348 24 19.5V23C24 23.2652 23.8946 23.5196 23.7071 23.7071C23.5196 23.8946 23.2652 24 23 24C18.4913 24 14.1673 22.2089 10.9792 19.0208C7.79107 15.8327 6 11.5087 6 7C6 6.73478 6.10536 6.48043 6.29289 6.29289C6.48043 6.10536 6.73478 6 7 6H10.5C10.7652 6 11.0196 6.10536 11.2071 6.29289C11.3946 6.48043 11.5 6.73478 11.5 7C11.5 8.25 11.7 9.45 12.07 10.57C12.18 10.92 12.1 11.31 11.82 11.59L9.62 13.79Z" fill="white"/>
</svg>
